#N canvas 447 243 539 391 10;
#X obj 97 54 gemhead;
#X obj 97 75 pix_openni 1;
#X obj 97 237 pix_texture;
#X obj 97 258 rectangle 4 3;
#X obj 331 76 gemwin;
#X msg 331 49 create \, 1;
#X obj 300 152 table filter 256;
#X obj 97 124 pix_curve filter;
#X obj 243 100 pix_grey;
#X obj 2 119 pix_texture;
#X obj 2 140 rectangle 4 3;
#X msg 199 56 channel 0;
#N canvas 0 0 430 519 settable 1;
#X obj 114 46 inlet;
#X obj 114 67 t f b;
#X msg 208 96 \; filter const 0 \;;
#X obj 118 328 cos;
#X obj 118 349 t f f;
#X obj 118 370 *;
#X obj 118 277 -;
#X obj 32 132 until;
#X obj 114 100 t b f f;
#X obj 32 91 t b b;
#X obj 32 198 t f f;
#X msg 32 153 1;
#X msg 65 111 -6;
#X obj 32 177 + -6;
#X obj 118 226 +;
#X obj 118 418 tabwrite filter;
#X obj 118 391 * 255;
#X msg 182 39 100;
#X obj 118 247 t f f;
#X text 193 302 / 5 * pi/2;
#X obj 305 301 * 0.314159;
#X msg 32 112 11;
#X obj 118 298 * 0.314159;
#X connect 0 0 1 0;
#X connect 1 0 8 0;
#X connect 1 1 2 0;
#X connect 3 0 4 0;
#X connect 4 0 5 0;
#X connect 4 1 5 1;
#X connect 5 0 16 0;
#X connect 6 0 22 0;
#X connect 7 0 11 0;
#X connect 8 0 9 0;
#X connect 8 1 14 1;
#X connect 8 2 6 1;
#X connect 9 0 21 0;
#X connect 9 1 12 0;
#X connect 10 0 14 0;
#X connect 10 1 13 1;
#X connect 11 0 13 0;
#X connect 12 0 13 1;
#X connect 13 0 10 0;
#X connect 14 0 18 0;
#X connect 16 0 15 0;
#X connect 17 0 1 0;
#X connect 18 0 6 0;
#X connect 18 1 15 1;
#X connect 21 0 7 0;
#X connect 22 0 3 0;
#X restore 264 347 pd settable;
#X floatatom 206 308 5 0 0 0 - - -;
#X msg 411 46 destroy;
#X msg 311 12 dimen 1024 768;
#X text 385 204 160;
#X text 381 226 120;
#X obj 264 311 line;
#X obj 224 185 tgl 15 0 empty empty empty 17 7 0 10 -262144 -1 -1 0
1;
#X obj 224 228 tgl 15 0 empty empty empty 17 7 0 10 -262144 -1 -1 0
1;
#X obj 224 248 sel 0 1;
#X msg 224 270 122 1000;
#X msg 283 269 161 1000;
#X obj 224 208 metro 1000;
#X obj 97 155 pix_motionblur;
#X obj 202 154 / 100;
#X floatatom 203 134 5 0 0 0 - - -;
#X obj 97 197 pix_gain 0.1 0.1 1;
#X obj 397 253 tgl 15 0 empty empty empty 17 7 0 10 -262144 -1 -1 1
1;
#X obj 397 276 metro 1000;
#X obj 397 296 t b b;
#X msg 423 319 120 0;
#X msg 377 344 175 1000;
#X connect 0 0 1 0;
#X connect 1 0 7 0;
#X connect 2 0 3 0;
#X connect 5 0 4 0;
#X connect 7 0 25 0;
#X connect 9 0 10 0;
#X connect 11 0 1 0;
#X connect 13 0 12 0;
#X connect 14 0 4 0;
#X connect 15 0 4 0;
#X connect 18 0 12 0;
#X connect 19 0 24 0;
#X connect 20 0 21 0;
#X connect 21 0 22 0;
#X connect 21 1 23 0;
#X connect 22 0 18 0;
#X connect 23 0 18 0;
#X connect 24 0 20 0;
#X connect 25 0 28 0;
#X connect 26 0 25 1;
#X connect 27 0 26 0;
#X connect 28 0 2 0;
#X connect 29 0 30 0;
#X connect 30 0 31 0;
#X connect 31 0 33 0;
#X connect 31 1 32 0;
#X connect 32 0 18 0;
#X connect 33 0 18 0;
