#N canvas 557 455 685 305 10;
#X obj 218 -3 gemhead;
#X msg 42 192 4;
#X obj 517 13 gemhead;
#X obj 517 34 world_light;
#X msg 183 197 2;
#X msg 322 202 -3;
#X msg 463 221 -5;
#X obj 218 78 rotateXYZ 0 0 0;
#X floatatom 236 52 5 0 0 0 - - -;
#X floatatom 286 52 5 0 0 0 - - -;
#X obj 88 144 loadbang;
#X obj 61 17 inlet;
#X obj 42 221 s sceleton/scale;
#X obj 183 222 s sceleton/offset;
#X obj 322 223 s sceleton/z_scale;
#X obj 463 244 s sceleton/z_offset;
#X obj 61 61 s sceleton/joint;
#X obj 218 103 s sceleton/gemhead;
#X obj 61 38 route joint;
#X text 330 49 ROTATE SCELETON;
#X obj 218 23 translateXYZ 3 0 0;
#N canvas 465 367 610 353 joint_orientation 1;
#X obj 60 42 r sceleton/joint;
#X obj 60 84 unpack f f f f f f f f f;
#X floatatom 266 102 5 0 0 0 - - -;
#X obj 148 110 * 57.2958;
#X obj 208 130 * 57.2958;
#X obj 278 130 * 57.2958;
#X obj 380 192 translateXYZ 0 0 0;
#X obj 378 268 cylinder;
#X obj 378 228 rotateXYZ 0 0 0;
#X text 297 71 not sure about right computation of euler angles!!;
#X obj 60 62 route head;
#X obj 378 303 rectangle 2 0.3;
#X obj 380 146 alpha;
#X obj 380 169 color 1 1 1 0.4;
#X obj 380 124 gemhead 70;
#X text 178 22 userid \, x \, y \, z \, posconfidence;
#X text 381 23 (xrot \, yrot \, zrot \, rotconfidence);
#X text 380 10 if euler_output 1;
#X text 105 22 joint_name;
#X connect 0 0 10 0;
#X connect 1 5 3 0;
#X connect 1 6 4 0;
#X connect 1 7 5 0;
#X connect 1 8 2 0;
#X connect 4 0 8 3;
#X connect 6 0 8 0;
#X connect 7 0 11 0;
#X connect 8 0 7 0;
#X connect 10 0 1 0;
#X connect 12 0 13 0;
#X connect 13 0 6 0;
#X connect 14 0 12 0;
#X restore 23 118 pd joint_orientation;
#N canvas 341 422 658 378 joints 0;
#X obj 144 106 joint l_shoulder;
#X obj 269 19 joint head;
#X obj 215 205 joint l_hip;
#X obj 210 267 joint l_knee;
#X obj -26 151 joint l_hand;
#X obj 525 155 joint r_hand;
#X obj 270 50 joint neck;
#X obj 268 97 joint torso;
#X obj 356 106 joint r_shoulder;
#X obj 71 136 joint l_elbow;
#X obj 450 130 joint r_elbow;
#X obj 324 205 joint r_hip;
#X obj 371 270 joint r_knee;
#X obj 412 346 joint r_foot;
#X obj 163 343 joint l_foot;
#X restore 22 96 pd joints;
#X connect 0 0 20 0;
#X connect 1 0 12 0;
#X connect 2 0 3 0;
#X connect 4 0 13 0;
#X connect 5 0 14 0;
#X connect 6 0 15 0;
#X connect 7 0 17 0;
#X connect 8 0 7 1;
#X connect 9 0 7 2;
#X connect 10 0 1 0;
#X connect 10 0 4 0;
#X connect 10 0 5 0;
#X connect 10 0 6 0;
#X connect 11 0 18 0;
#X connect 18 0 16 0;
#X connect 20 0 7 0;
