#N canvas 494 234 450 300 10;
#X obj 75 34 route \$1;
#X obj 75 55 unpack f f f f;
#X obj 79 178 translateXYZ;
#X text 261 113 arg1: joint name;
#X obj 106 90 * 1;
#X obj 138 89 * 1;
#X obj 170 89 * 1;
#X obj 106 131 - 0;
#X obj 138 130 - 0;
#X obj 170 128 - 0;
#X floatatom 217 126 5 0 0 0 - - -;
#X obj 138 149 * -1;
#X obj -48 151 separator;
#X obj 79 234 sphere 0.07;
#X obj 79 203 color 1 1 1;
#N canvas 675 44 450 300 colors 0;
#X obj 20 20 loadbang;
#X obj 20 41 symbol \$1;
#X msg 20 128 1 1 0;
#X obj 28 193 outlet;
#X obj 20 80 sel head l_hand r_hand l_shoulder r_shoulder l_hip r_hip
l_foot r_foot;
#X msg 74 127 0.9 0.9 0.9;
#X msg 174 128 0.9 0.9 0.9;
#X msg 266 131 0.9 0.9 0.9;
#X msg 370 133 0.9 0.9 0.9;
#X connect 0 0 1 0;
#X connect 1 0 4 0;
#X connect 2 0 3 0;
#X connect 4 0 2 0;
#X connect 4 1 5 0;
#X connect 4 2 5 0;
#X connect 4 3 6 0;
#X connect 4 4 6 0;
#X connect 4 5 7 0;
#X connect 4 6 7 0;
#X connect 4 7 8 0;
#X connect 4 8 8 0;
#X connect 5 0 3 0;
#X connect 6 0 3 0;
#X connect 7 0 3 0;
#X connect 8 0 3 0;
#X restore -16 177 pd colors;
#X obj 188 195 r sceleton/sphere_size;
#X obj 173 223 r sceleton/sphere_segments;
#X obj 246 85 r sceleton/z_offset;
#X obj 245 57 r sceleton/offset;
#X obj 246 26 r sceleton/z_scale;
#X obj 243 5 r sceleton/scale;
#X obj 75 13 r sceleton/joint;
#X obj -48 130 r sceleton/gemhead;
#X connect 0 0 1 0;
#X connect 1 1 4 0;
#X connect 1 2 5 0;
#X connect 1 3 6 0;
#X connect 2 0 14 0;
#X connect 4 0 7 0;
#X connect 5 0 8 0;
#X connect 6 0 9 0;
#X connect 7 0 2 1;
#X connect 8 0 11 0;
#X connect 9 0 2 3;
#X connect 11 0 2 2;
#X connect 12 0 2 0;
#X connect 14 0 13 0;
#X connect 15 0 14 1;
#X connect 16 0 13 1;
#X connect 17 0 13 2;
#X connect 18 0 9 1;
#X connect 19 0 7 1;
#X connect 19 0 8 1;
#X connect 20 0 6 1;
#X connect 21 0 4 1;
#X connect 21 0 5 1;
#X connect 22 0 0 0;
#X connect 23 0 12 0;
