#N canvas 216 30 933 467 10;
#X obj 109 120 gemhead;
#X obj 247 54 gemwin;
#X msg 247 22 dimen 640 480 \, create \, 1;
#X msg 370 60 destroy;
#X obj 109 255 pix_texture;
#X msg 327 92 color 0.5 0.5 0.5;
#X obj 109 352 rectangle 4 3;
#X obj 146 333 * 4;
#X obj 184 332 * 3;
#X floatatom 146 315 5 0 0 0 - - -;
#X obj 145 277 loadbang;
#X msg 416 24 lighting 1;
#X obj 416 2 loadbang;
#X obj 226 129 gemhead;
#X obj 295 303 pix_texture;
#X obj 295 400 rectangle 4 3;
#X obj 332 381 * 4;
#X obj 370 380 * 3;
#X floatatom 332 363 5 0 0 0 - - -;
#X obj 332 323 loadbang;
#X obj 109 226 translateXYZ -3 2 0;
#N canvas 199 341 1029 438 properties 0;
#X text 14 17 properties for pix_openni;
#X obj 39 54 cnv 15 300 150 empty empty empty 20 12 0 14 -232576 -66577
0;
#X msg 55 122 rgb \$1;
#X obj 55 88 vradio 15 1 0 2 empty empty empty 0 -8 0 10 -262144 -1
-1 0;
#X obj 112 88 vradio 15 1 0 2 empty empty empty 0 -8 0 10 -262144 -1
-1 0;
#X msg 112 122 depth \$1;
#X obj 180 88 vradio 15 1 0 2 empty empty empty 0 -8 0 10 -262144 -1
-1 1;
#X obj 256 148 vradio 15 1 0 2 empty empty empty 0 -8 0 10 -262144
-1 -1 0;
#X msg 256 182 hand \$1;
#X text 77 86 OFF;
#X text 77 102 ON;
#X obj 54 162 s \$0-prop;
#X text 49 59 TURN ON/OFF STREAMS;
#X obj 363 55 cnv 15 300 150 empty empty empty 20 12 0 14 -260097 -66577
0;
#X msg 400 130 depth_mode 640 480 30;
#X msg 374 83 video_mode 640 480 30;
#X msg 384 102 video_mode 1280 1024 15;
#X text 376 59 change video/depth mode of OpenNI;
#X msg 497 151 bang;
#X text 535 151 view available modes;
#X obj 379 170 s \$0-prop;
#X obj 38 222 cnv 15 300 150 empty empty empty 20 12 0 14 -204800 -66577
0;
#X msg 45 315 depth_output \$1;
#X obj 45 250 vradio 15 1 0 4 empty empty empty 0 -8 0 10 -262144 -1
-1 0;
#X msg 234 308 registration \$1;
#X obj 234 274 vradio 15 1 0 2 empty empty empty 0 -8 0 10 -262144
-1 -1 0;
#X obj 45 349 s \$0-prop;
#X text 41 223 DEPTH OUTPUT PROPERTIES;
#X obj 364 223 cnv 15 300 150 empty empty empty 20 12 0 14 -162280
-66577 0;
#X obj 407 317 vradio 15 1 0 2 empty empty empty 0 -8 0 10 -262144
-1 -1 0;
#X text 429 315 OFF;
#X text 429 331 ON;
#X obj 406 255 vradio 15 1 0 2 empty empty empty 0 -8 0 10 -262144
-1 -1 0;
#X text 425 253 OFF;
#X text 425 269 ON;
#X msg 406 289 real_world_coords \$1;
#X msg 407 351 osc_style_output \$1;
#X text 456 266 z: 0-7;
#X text 455 253 if OFF x and y are normalized 0-1;
#X text 390 226 tracking data properties (skeleton \, hand);
#X obj 369 379 s \$0-prop;
#X text 456 314 -> joint r_hand id x y z;
#X text 451 330 -> /skeleton/joint/r_hand id x y z;
#X text 236 239 Match viewpoints;
#X text 236 254 of RGB and Depth;
#X text 252 271 OFF;
#X text 252 287 ON;
#X text 64 247 normal -> human viewable;
#X text 65 263 greyscale (1 byte);
#X text 64 279 raw rgba -> mm in r&g ch.;
#X text 64 295 raw yuv (2 byte)->16 bit mm;
#X obj 685 125 cnv 15 300 250 empty empty empty 20 12 0 14 -128992
-66577 0;
#X obj 690 344 s \$0-prop;
#X floatatom 810 148 5 0 0 0 - - -;
#X text 691 125 skeleton specific;
#X msg 698 259 userinfo;
#X text 758 247 userinfo to outlet;
#X text 771 261 num_users [#];
#X msg 690 163 stop_user;
#X msg 810 167 stop_user \$1;
#X floatatom 811 189 5 0 0 0 - - -;
#X msg 695 222 start_user;
#X msg 811 208 start_user \$1;
#X text 692 190 start calibration;
#X obj 781 309 vradio 15 1 0 2 empty empty empty 0 -8 0 10 -262144
-1 -1 0;
#X text 800 307 OFF;
#X text 800 323 ON;
#X text 773 291 start calibration if user detected;
#X msg 781 343 auto_calibration \$1;
#X text 692 203 for all users;
#X text 848 134 stop skeleton for;
#X text 852 150 specific user;
#X text 687 144 stop all skeletons;
#X text 848 187 start calibration for;
#X text 912 202 spec. user;
#X text 827 322 default: ON;
#X obj 255 88 vradio 15 1 0 2 empty empty empty 0 -8 0 10 -262144 -1
-1 1;
#X msg 255 122 skeleton \$1;
#X msg 180 122 usergen \$1;
#X text 771 273 user [id] [is_tracking] x y z (com);
#X connect 2 0 11 0;
#X connect 3 0 2 0;
#X connect 4 0 5 0;
#X connect 5 0 11 0;
#X connect 6 0 78 0;
#X connect 7 0 8 0;
#X connect 8 0 11 0;
#X connect 14 0 20 0;
#X connect 15 0 20 0;
#X connect 16 0 20 0;
#X connect 18 0 20 0;
#X connect 22 0 26 0;
#X connect 23 0 22 0;
#X connect 24 0 26 0;
#X connect 25 0 24 0;
#X connect 29 0 36 0;
#X connect 32 0 35 0;
#X connect 35 0 40 0;
#X connect 36 0 40 0;
#X connect 53 0 59 0;
#X connect 55 0 52 0;
#X connect 58 0 52 0;
#X connect 59 0 52 0;
#X connect 60 0 62 0;
#X connect 61 0 52 0;
#X connect 62 0 52 0;
#X connect 64 0 68 0;
#X connect 68 0 52 0;
#X connect 76 0 77 0;
#X connect 77 0 11 0;
#X connect 78 0 11 0;
#X restore 43 87 pd properties;
#X obj 295 274 translateXYZ 3 2 0;
#N canvas 1 151 319 137 pix_info 0;
#X obj -17 39 pix_info ____________________;
#X floatatom -28 77 5 0 0 0 - - -;
#X floatatom 7 78 5 0 0 0 - - -;
#X floatatom 42 81 5 0 0 0 - - -;
#X floatatom 84 83 5 0 0 0 - - -;
#X floatatom 125 80 5 0 0 0 - - -;
#X floatatom 168 79 5 0 0 0 - - -;
#X obj -17 12 inlet;
#X connect 0 1 1 0;
#X connect 0 2 2 0;
#X connect 0 3 3 0;
#X connect 0 4 4 0;
#X connect 0 5 5 0;
#X connect 0 6 6 0;
#X connect 7 0 0 0;
#X restore 109 382 pd pix_info;
#N canvas 1 117 319 137 pix_info 0;
#X obj -17 39 pix_info ____________________;
#X floatatom -28 77 5 0 0 0 - - -;
#X floatatom 7 78 5 0 0 0 - - -;
#X floatatom 42 81 5 0 0 0 - - -;
#X floatatom 84 83 5 0 0 0 - - -;
#X floatatom 125 80 5 0 0 0 - - -;
#X floatatom 168 79 5 0 0 0 - - -;
#X obj -17 12 inlet;
#X connect 0 1 1 0;
#X connect 0 2 2 0;
#X connect 0 3 3 0;
#X connect 0 4 4 0;
#X connect 0 5 5 0;
#X connect 0 6 6 0;
#X connect 7 0 0 0;
#X restore 295 426 pd pix_info;
#X text 610 95 arguments:;
#X text 613 133 2nd: rgb stream on;
#X text 613 149 3rd: depth stream on;
#X text 613 165 4th: skeleton tracking on;
#X text 614 182 5th: hand tracking on;
#X text 613 117 1st: kinect ID/serial --> just dummy;
#X obj 109 155 pix_openni 0 1 1 0 0;
#N canvas 182 223 857 435 distance_measurement 0;
#X obj -106 43 inlet;
#X obj -196 90 pix_data;
#X floatatom -57 54 5 0 0 0 - - -;
#X floatatom -20 54 5 0 0 0 - - -;
#X obj -174 141 unpack 0 0 0;
#X floatatom -172 163 5 0 0 0 - - -;
#X floatatom -133 163 5 0 0 0 - - -;
#X floatatom -93 163 5 0 0 0 - - -;
#X msg -57 29 0.5;
#X obj -140 202 * 256;
#X obj -210 202 * 65536;
#X obj -210 232 +;
#X obj -196 48 metro 100;
#X obj -196 25 tgl 15 0 empty empty empty 17 7 0 10 -262144 -1 -1 0
1;
#X text -129 88 output pixel rgb value;
#X text -92 140 r g b;
#X text -101 201 second and first 8 bits;
#X text 178 27 -> see properties;
#X text 22 53 x \, y pixel position in range 0 - 1;
#X text 121 65 (from depth image);
#X text -178 24 ON/OFF;
#X obj -210 314 nbx 5 60 -1e+37 1e+37 0 0 empty empty m 300 22 0 60
-262144 -1 -1 0 256;
#X obj -210 260 / 1000;
#X obj -57 7 loadbang;
#X text -184 232 16 bit;
#X text 12 10 for distance measurement use !!!raw depth output!!!;
#X msg 333 13 depth_output 2;
#X obj 333 37 s \$0-prop;
#X connect 0 0 1 1;
#X connect 1 1 4 0;
#X connect 2 0 1 2;
#X connect 3 0 1 3;
#X connect 4 0 5 0;
#X connect 4 0 10 0;
#X connect 4 1 6 0;
#X connect 4 1 9 0;
#X connect 4 2 7 0;
#X connect 8 0 2 0;
#X connect 8 0 3 0;
#X connect 9 0 11 1;
#X connect 10 0 11 0;
#X connect 11 0 22 0;
#X connect 12 0 1 0;
#X connect 13 0 12 0;
#X connect 22 0 21 0;
#X connect 23 0 8 0;
#X connect 26 0 27 0;
#X restore 416 422 pd distance_measurement;
#X msg 146 295 0.5;
#X msg 332 343 0.5;
#X obj 43 120 r \$0-prop;
#X obj -54 6 cnv 15 250 60 empty empty empty 20 12 0 14 -232576 -66577
0;
#X text -52 24 (C)2011/2012 Matthias Kronlachner;
#X text -54 44 depends on OpenNI \, NITE and SensorKinect;
#X text -50 6 pix_openni 0.03 experimental!!;
#X text 110 400 RGB Image;
#X text 297 252 DEPTH Image;
#N canvas 0 22 568 313 record 0;
#X obj 55 179 s \$0-prop;
#X obj 69 111 vradio 15 1 0 2 empty empty empty 0 -8 0 10 -262144 -1
-1 0;
#X text 91 109 OFF;
#X text 91 125 ON;
#X msg 69 145 record \$1;
#X obj 156 111 vradio 15 1 0 2 empty empty empty 0 -8 0 10 -262144
-1 -1 0;
#X text 178 109 OFF;
#X text 178 125 ON;
#X msg 156 145 play \$1;
#X msg 250 154 playback_speed \$1;
#X floatatom 250 132 5 0 0 0 - - -;
#X text 23 14 record image and depth stream to .oni file and playback
later;
#X text 36 47 experimental!!;
#X floatatom 238 189 5 0 0 0 - - -;
#X msg 238 211 jump_image_frame \$1;
#X floatatom 380 193 5 0 0 0 - - -;
#X msg 380 215 jump_depth_frame \$1;
#X msg 55 78 open hallo.oni;
#X connect 1 0 4 0;
#X connect 4 0 0 0;
#X connect 5 0 8 0;
#X connect 8 0 0 0;
#X connect 9 0 0 0;
#X connect 10 0 9 0;
#X connect 13 0 14 0;
#X connect 14 0 0 0;
#X connect 15 0 16 0;
#X connect 16 0 0 0;
#X connect 17 0 0 0;
#X restore -1 159 pd record;
#N canvas 1 89 531 259 tracking_data 1;
#X obj 32 83 gem_sceleton;
#N canvas 537 306 675 356 status_msg 0;
#X obj 16 26 inlet;
#X obj 79 217 text3d;
#X obj 79 125 list trim;
#X obj 174 166 loadbang;
#X obj 215 55 gemhead 20;
#X obj 215 80 alpha 1;
#X obj 215 128 color 1 1 1 0;
#X obj 353 69 line;
#X msg 353 105 1 1 1 \$1;
#X msg 353 43 0 1000;
#X obj 79 81 t a b b;
#X obj 79 102 list prepend text;
#X obj 353 7 delay 1500;
#X msg 112 187 6;
#X msg 174 190 justify left base;
#X obj 215 106 translateXYZ -5 -3.5 0;
#X msg 282 7 1 200;
#X text 87 236 post new_user ....;
#X obj 359 231 color 0 0 0 0;
#X obj 359 157 gemhead 19;
#X obj 359 203 translateXYZ -5 -3.5 0;
#X obj 359 282 rectangle 2.6 0.3;
#X obj 359 259 translateXYZ 2.4 0.12 0;
#X obj 359 179 alpha 1;
#X msg 426 109 0 0 0 \$1;
#X obj 16 54 route joint hand playback user;
#X connect 0 0 25 0;
#X connect 2 0 1 0;
#X connect 3 0 13 0;
#X connect 3 0 14 0;
#X connect 4 0 5 0;
#X connect 5 0 15 0;
#X connect 6 0 1 0;
#X connect 7 0 8 0;
#X connect 7 0 24 0;
#X connect 8 0 6 1;
#X connect 9 0 7 0;
#X connect 10 0 11 0;
#X connect 10 1 16 0;
#X connect 10 2 12 0;
#X connect 11 0 2 0;
#X connect 12 0 9 0;
#X connect 13 0 1 1;
#X connect 14 0 1 0;
#X connect 15 0 6 0;
#X connect 16 0 7 0;
#X connect 18 0 22 0;
#X connect 19 0 23 0;
#X connect 20 0 18 0;
#X connect 22 0 21 0;
#X connect 23 0 20 0;
#X connect 24 0 18 1;
#X connect 25 4 10 0;
#X restore 122 84 pd status_msg;
#N canvas 732 158 545 513 hand 0;
#X obj 20 32 inlet;
#X text 74 32 display hand tracking;
#X obj 20 63 route hand;
#X obj 20 96 unpack f f f f;
#X floatatom 57 140 5 0 0 0 - - -;
#X floatatom 95 138 5 0 0 0 - - -;
#X floatatom 132 139 5 0 0 0 - - -;
#X floatatom 20 140 5 0 0 0 - - -;
#X obj 86 188 gemhead;
#X obj 86 280 translateXYZ;
#X obj 86 379 sphere 0.1;
#X obj 172 351 separator;
#X obj 86 323 t a a;
#X obj 86 351 separator;
#X obj 171 455 text3d;
#X obj 267 393 loadbang;
#X msg 204 414 4;
#X obj 86 301 color 0 0.1 1;
#X msg -9 303 text hand \$1;
#X msg 267 417 justify center base;
#X obj 171 373 translateXYZ 0 -0.35 0.01;
#X obj 94 225 * 4;
#X obj 94 247 - 2;
#X obj 174 225 * -4;
#X obj 174 247 + 3;
#X obj 134 225 * -4;
#X obj 134 247 + 2;
#X msg 33 448 text hand;
#X obj 33 415 loadbang;
#X connect 0 0 2 0;
#X connect 2 0 3 0;
#X connect 3 0 7 0;
#X connect 3 0 18 0;
#X connect 3 1 4 0;
#X connect 3 1 21 0;
#X connect 3 2 5 0;
#X connect 3 2 25 0;
#X connect 3 3 6 0;
#X connect 3 3 23 0;
#X connect 8 0 9 0;
#X connect 9 0 17 0;
#X connect 11 0 20 0;
#X connect 12 0 13 0;
#X connect 12 1 11 0;
#X connect 13 0 10 0;
#X connect 15 0 16 0;
#X connect 15 0 19 0;
#X connect 16 0 14 1;
#X connect 17 0 12 0;
#X connect 18 0 14 0;
#X connect 19 0 14 0;
#X connect 20 0 14 0;
#X connect 21 0 22 0;
#X connect 22 0 9 1;
#X connect 23 0 24 0;
#X connect 24 0 9 3;
#X connect 25 0 26 0;
#X connect 26 0 9 2;
#X connect 27 0 14 0;
#X connect 28 0 27 0;
#X restore 213 85 pd hand;
#X obj 32 18 inlet;
#X obj 318 79 route playback;
#X floatatom 292 145 5 0 0 0 - - -;
#X floatatom 329 144 5 0 0 0 - - -;
#X text 295 162 rgb;
#X text 316 59 playback frame;
#X obj 318 107 unpack 0 0 0 0;
#X floatatom 407 143 5 0 0 0 - - -;
#X floatatom 445 143 5 0 0 0 - - -;
#X text 445 161 total;
#X text 329 162 total;
#X text 407 162 depth;
#X text 296 175 cur;
#X text 411 175 cur;
#N canvas 242 335 585 405 user_center_of_mass 1;
#X obj 35 42 inlet;
#X obj 35 70 route user;
#X obj 35 99 unpack f f f f f;
#X text 129 43 info about detected users;
#X text 122 69 user [id] [skeleton_is_tracking] [x] [y] [z];
#X obj 204 292 translateXYZ;
#X text 386 227 arg1: joint name;
#X obj 227 206 * 1;
#X obj 259 205 * 1;
#X obj 291 205 * 1;
#X obj 227 247 - 0;
#X obj 259 246 - 0;
#X obj 291 244 - 0;
#X obj 259 265 * -1;
#X obj 27 215 separator;
#X obj 204 317 color 1 1 1;
#X obj 371 199 r sceleton/z_offset;
#X obj 370 171 r sceleton/offset;
#X obj 371 140 r sceleton/z_scale;
#X obj 368 119 r sceleton/scale;
#X obj 27 194 r sceleton/gemhead;
#X obj 204 367 text3d;
#X obj 356 329 loadbang;
#X msg 295 350 4;
#X msg 356 353 justify center base;
#X obj 81 338 list trim;
#X obj 81 315 list prepend text;
#X obj 468 319 s \$0-prop;
#X msg 468 290 userinfo;
#X obj 468 269 metro 200;
#X obj 468 247 tgl 15 0 empty empty empty 17 7 0 10 -262144 -1 -1 0
1;
#X text 322 86 coordinates are center of mass of user;
#X connect 0 0 1 0;
#X connect 1 0 2 0;
#X connect 2 0 26 0;
#X connect 2 2 7 0;
#X connect 2 3 8 0;
#X connect 2 4 9 0;
#X connect 5 0 15 0;
#X connect 7 0 10 0;
#X connect 8 0 11 0;
#X connect 9 0 12 0;
#X connect 10 0 5 1;
#X connect 11 0 13 0;
#X connect 12 0 5 3;
#X connect 13 0 5 2;
#X connect 14 0 5 0;
#X connect 15 0 21 0;
#X connect 16 0 12 1;
#X connect 17 0 10 1;
#X connect 17 0 11 1;
#X connect 18 0 9 1;
#X connect 19 0 7 1;
#X connect 19 0 8 1;
#X connect 20 0 14 0;
#X connect 22 0 23 0;
#X connect 22 0 24 0;
#X connect 23 0 21 1;
#X connect 24 0 21 0;
#X connect 25 0 21 0;
#X connect 26 0 25 0;
#X connect 28 0 27 0;
#X connect 29 0 28 0;
#X connect 30 0 29 0;
#X restore 12 125 pd user_center_of_mass;
#X connect 3 0 0 0;
#X connect 3 0 1 0;
#X connect 3 0 2 0;
#X connect 3 0 4 0;
#X connect 3 0 17 0;
#X connect 4 0 9 0;
#X connect 9 0 5 0;
#X connect 9 1 6 0;
#X connect 9 2 10 0;
#X connect 9 3 11 0;
#X restore 226 182 pd tracking_data;
#X text 233 166 tracking and info output;
#X connect 0 0 31 0;
#X connect 2 0 1 0;
#X connect 3 0 1 0;
#X connect 4 0 6 0;
#X connect 5 0 1 0;
#X connect 6 0 23 0;
#X connect 7 0 6 1;
#X connect 8 0 6 2;
#X connect 9 0 7 0;
#X connect 9 0 8 0;
#X connect 10 0 33 0;
#X connect 11 0 1 0;
#X connect 12 0 11 0;
#X connect 13 0 31 1;
#X connect 14 0 15 0;
#X connect 15 0 24 0;
#X connect 15 0 32 0;
#X connect 16 0 15 1;
#X connect 17 0 15 2;
#X connect 18 0 16 0;
#X connect 18 0 17 0;
#X connect 19 0 34 0;
#X connect 20 0 4 0;
#X connect 22 0 14 0;
#X connect 31 0 20 0;
#X connect 31 1 22 0;
#X connect 31 2 43 0;
#X connect 33 0 9 0;
#X connect 34 0 18 0;
#X connect 35 0 31 0;
